# xmcd
#
# Track frame offsets:
#	150
#	11102
#	24375
#	37165
#	53062
#	67735
#	80540
#	95130
#	109125
#	121755
#	133917
#	150392
#
# Disc length: 2238 seconds
#
# Revision: 0
# Processed by: cddbd v1.5.1PL0 Copyright (c) Steve Scherf et al.
# Submitted via: EasyCDDAExtractor 8.2.1.1
#
DISCID=9808bc0c
DTITLE=Various Artist - Breakin' My Heart Blues
DYEAR=2005
DGENRE=Blues
TTITLE0=Robert Johnson - Love In Vain
TTITLE1=Leadbelly - Roberta
TTITLE2=Bessie Smith - I Used To Be Your Sweet Mama
TTITLE3=Mississippi John Hurt - Baby, What's Wrong With You
TTITLE4=Big Bill Broonzy - Baby, Please Don't Go
TTITLE5=Dinah Washington - All Or Nothin' Blues
TTITLE6=John Lee Hooker - Don't Go Baby
TTITLE7=Muddy Waters - Forty Days And Forty Nights
TTITLE8=Sonny Boy Williamson - Little Low Woman Blues
TTITLE9=Jimmy Reed - Where Can You Be
TTITLE10=Memphis Slim - Just Let Me Be
TTITLE11=Otis Spann - Evil Ways
EXTD=
EXTT0=
EXTT1=
EXTT2=
EXTT3=
EXTT4=
EXTT5=
EXTT6=
EXTT7=
EXTT8=
EXTT9=
EXTT10=
EXTT11=
PLAYORDER=
